# xmcd
#
# Track frame offsets:
#	150
#	12440
#	36514
#	51727
#	68402
#	83707
#	91913
#	107387
#	116001
#	141471
#	153348
#	168266
#	186497
#	198886
#	222575
#	264934
#	276518
#	290824
#
# Disc length: 4091 seconds
#
# Revision: 2
# Processed by: cddbd v1.5.2PL0 Copyright (c) Steve Scherf et al.
# Submitted via: audiograbber 1.83.01
#
DISCID=130ff912
DTITLE=Sampler - Sweet Home Alabama - Real Southern Flavour Vol.3 CD2
DYEAR=1900
DGENRE=Southern Rock
TTITLE0=Alabama - Loving You Is Killing Me
TTITLE1=Blue Cheer - Summertime Blues (Live)
TTITLE2=T.G. Sheppard - Slow Burn
TTITLE3=Tanya Tucker - Little Things (Live)
TTITLE4=Freddy Fender - Jambalaya (Live)
TTITLE5=Mickey Gilley - Great Balls Of Fire (Live)
TTITLE6=Brewer and Shipley - One Toke Over The Line
TTITLE7=Waylon Jennings - Jolie Blonde
TTITLE8=Canned Heat - Amphetamine Annie (Live)
TTITLE9=Juice Newton - Stuck In The Middle
TTITLE10=Dr. John - Tipitina
TTITLE11=Johnny Paycheck - Billy Jack Washburn
TTITLE12=Jerry Lee Lewis - Good Rockin' Tonight (Live)
TTITLE13=Restless Heart - The Bluest Eyes In Texas (Live In Appleton)
TTITLE14=Foghat - I Just Want To Make Love To You (Live)
TTITLE15=The Ozark Mountain Daredevils - Homemade Wine
TTITLE16=Carl Perkins - Redneck
TTITLE17=Redbone - Witch Queen Of New Orleans
EXTD=
EXTT0=
EXTT1=
EXTT2=
EXTT3=
EXTT4=
EXTT5=
EXTT6=
EXTT7=
EXTT8=
EXTT9=
EXTT10=
EXTT11=
EXTT12=
EXTT13=
EXTT14=
EXTT15=
EXTT16=
EXTT17=
PLAYORDER=
